<svg xmlns="http://www.w3.org/2000/svg" xmlns:xlink="http://www.w3.org/1999/xlink" width="500" zoomAndPan="magnify" viewBox="0 0 375 374.999991" height="500" preserveAspectRatio="xMidYMid meet" version="1.0"><defs><g/><clipPath id="40e135558c"><path d="M 75 37.5 L 300 37.5 L 300 186 L 75 186 Z M 75 37.5 " clip-rule="nonzero"/></clipPath><clipPath id="939fb93abf"><path d="M 146.050781 178.617188 L 229 178.617188 L 229 261.867188 L 146.050781 261.867188 Z M 146.050781 178.617188 " clip-rule="nonzero"/></clipPath></defs><path fill="#6141ac" d="M 116.039062 283 C 112.636719 283 109.28125 282.085938 106.285156 280.296875 C 101.894531 277.679688 98.78125 273.507812 97.523438 268.554688 L 75.875 183.242188 C 74.621094 178.285156 75.367188 173.136719 77.984375 168.742188 C 80.601562 164.351562 84.769531 161.238281 89.722656 159.980469 L 92.175781 159.359375 C 102.40625 156.761719 112.84375 162.976562 115.4375 173.207031 L 137.078125 258.523438 C 138.335938 263.484375 137.589844 268.632812 134.972656 273.023438 C 132.355469 277.417969 128.183594 280.527344 123.230469 281.785156 L 120.78125 282.410156 C 119.210938 282.804688 117.621094 283 116.039062 283 Z M 96.882812 165.90625 C 95.90625 165.90625 94.917969 166.023438 93.929688 166.277344 L 91.480469 166.902344 C 88.371094 167.691406 85.753906 169.640625 84.117188 172.398438 C 82.476562 175.152344 82.011719 178.382812 82.796875 181.492188 L 104.4375 266.808594 C 105.230469 269.917969 107.179688 272.535156 109.933594 274.171875 C 112.691406 275.8125 115.917969 276.277344 119.03125 275.492188 L 121.480469 274.871094 C 124.585938 274.082031 127.207031 272.128906 128.84375 269.375 C 130.484375 266.617188 130.949219 263.386719 130.164062 260.28125 L 108.523438 174.960938 C 107.140625 169.53125 102.238281 165.90625 96.882812 165.90625 Z M 96.882812 165.90625 " fill-opacity="1" fill-rule="nonzero"/><path fill="#6141ac" d="M 93.660156 272.621094 C 81.914062 272.621094 71.183594 264.683594 68.167969 252.785156 L 57.585938 211.097656 C 55.859375 204.285156 56.886719 197.214844 60.480469 191.175781 C 64.074219 185.140625 69.804688 180.863281 76.613281 179.136719 L 78.402344 178.683594 C 80.316406 178.199219 82.257812 179.355469 82.738281 181.261719 L 104.492188 267.019531 C 104.976562 268.925781 103.820312 270.867188 101.910156 271.355469 L 100.121094 271.8125 C 97.960938 272.359375 95.792969 272.621094 93.660156 272.621094 Z M 76.714844 186.554688 C 72.476562 188.035156 68.933594 190.929688 66.609375 194.832031 C 63.992188 199.226562 63.246094 204.382812 64.503906 209.339844 L 75.078125 251.035156 C 77.53125 260.714844 86.992188 266.792969 96.671875 265.242188 Z M 76.714844 186.554688 " fill-opacity="1" fill-rule="nonzero"/><path fill="#6141ac" d="M 258.902344 282.992188 C 257.347656 282.992188 255.769531 282.804688 254.195312 282.402344 L 251.746094 281.78125 C 246.792969 280.523438 242.617188 277.410156 240.003906 273.019531 C 237.386719 268.628906 236.640625 263.476562 237.898438 258.519531 L 259.539062 173.203125 C 260.796875 168.246094 263.910156 164.074219 268.300781 161.460938 C 272.695312 158.847656 277.84375 158.097656 282.800781 159.359375 L 285.253906 159.980469 C 290.207031 161.238281 294.378906 164.351562 296.992188 168.742188 C 299.609375 173.136719 300.355469 178.285156 299.101562 183.242188 L 277.457031 268.558594 C 275.261719 277.210938 267.453125 282.992188 258.902344 282.992188 Z M 278.074219 165.902344 C 275.945312 165.902344 273.839844 166.476562 271.957031 167.597656 C 269.199219 169.238281 267.25 171.851562 266.460938 174.957031 L 244.816406 260.273438 C 244.027344 263.382812 244.496094 266.613281 246.140625 269.371094 C 247.78125 272.125 250.394531 274.074219 253.5 274.867188 L 255.953125 275.488281 C 262.367188 277.117188 268.910156 273.21875 270.539062 266.804688 L 292.179688 181.488281 C 292.972656 178.378906 292.5 175.148438 290.859375 172.394531 C 289.214844 169.636719 286.605469 167.6875 283.496094 166.894531 L 281.046875 166.273438 C 280.066406 166.023438 279.066406 165.902344 278.074219 165.902344 Z M 278.074219 165.902344 " fill-opacity="1" fill-rule="nonzero"/><path fill="#6141ac" d="M 281.320312 272.621094 C 279.183594 272.621094 277.019531 272.359375 274.859375 271.8125 L 273.070312 271.355469 C 271.160156 270.867188 270.003906 268.925781 270.492188 267.019531 L 292.242188 181.269531 C 292.730469 179.359375 294.671875 178.203125 296.578125 178.6875 L 298.367188 179.140625 C 305.179688 180.867188 310.90625 185.140625 314.5 191.179688 C 318.09375 197.214844 319.121094 204.292969 317.394531 211.101562 L 306.820312 252.792969 C 303.796875 264.683594 293.066406 272.621094 281.320312 272.621094 Z M 278.300781 265.238281 C 287.976562 266.792969 297.441406 260.707031 299.894531 251.027344 L 310.46875 209.335938 C 312.925781 199.65625 307.503906 189.796875 298.257812 186.550781 Z M 278.300781 265.238281 " fill-opacity="1" fill-rule="nonzero"/><g clip-path="url(#40e135558c)"><path fill="#6141ac" d="M 295.699219 185.710938 C 293.726562 185.710938 292.128906 184.113281 292.128906 182.144531 L 292.128906 149.417969 C 292.128906 121.46875 281.246094 95.1875 261.480469 75.425781 C 241.71875 55.660156 215.441406 44.777344 187.492188 44.777344 C 159.542969 44.777344 133.257812 55.660156 113.496094 75.425781 C 93.730469 95.1875 82.847656 121.46875 82.847656 149.417969 L 82.847656 182.144531 C 82.847656 184.113281 81.25 185.710938 79.277344 185.710938 C 77.308594 185.710938 75.710938 184.113281 75.710938 182.144531 L 75.710938 149.417969 C 75.710938 119.558594 87.335938 91.488281 108.449219 70.375 C 129.5625 49.265625 157.632812 37.640625 187.492188 37.640625 C 217.347656 37.640625 245.421875 49.265625 266.53125 70.382812 C 287.640625 91.492188 299.273438 119.5625 299.273438 149.421875 L 299.273438 182.148438 C 299.265625 184.113281 297.671875 185.710938 295.699219 185.710938 Z M 295.699219 185.710938 " fill-opacity="1" fill-rule="nonzero"/></g><path fill="#6141ac" d="M 96.578125 165.375 C 94.605469 165.375 93.007812 163.773438 93.007812 161.804688 L 93.007812 148.480469 C 93.007812 96.378906 135.390625 53.996094 187.492188 53.996094 C 189.460938 53.996094 191.058594 55.59375 191.058594 57.566406 C 191.058594 59.535156 189.460938 61.132812 187.492188 61.132812 C 139.332031 61.132812 100.144531 100.320312 100.144531 148.480469 L 100.144531 161.804688 C 100.144531 163.773438 98.546875 165.375 96.578125 165.375 Z M 96.578125 165.375 " fill-opacity="1" fill-rule="nonzero"/><path fill="#6141ac" d="M 278.40625 165.375 C 276.433594 165.375 274.835938 163.773438 274.835938 161.804688 L 274.835938 148.480469 C 274.835938 100.316406 235.652344 61.132812 187.492188 61.132812 C 185.519531 61.132812 183.921875 59.535156 183.921875 57.566406 C 183.921875 55.59375 185.519531 53.996094 187.492188 53.996094 C 239.589844 53.996094 281.972656 96.378906 281.972656 148.480469 L 281.972656 161.804688 C 281.972656 163.773438 280.375 165.375 278.40625 165.375 Z M 278.40625 165.375 " fill-opacity="1" fill-rule="nonzero"/><g clip-path="url(#939fb93abf)"><path fill="#6141ac" d="M 228.9375 220.0625 C 228.9375 221.417969 228.871094 222.773438 228.738281 224.125 C 228.605469 225.476562 228.40625 226.816406 228.144531 228.148438 C 227.878906 229.476562 227.550781 230.792969 227.15625 232.09375 C 226.761719 233.390625 226.304688 234.667969 225.785156 235.921875 C 225.265625 237.175781 224.6875 238.402344 224.046875 239.597656 C 223.40625 240.796875 222.707031 241.957031 221.953125 243.085938 C 221.199219 244.214844 220.394531 245.304688 219.53125 246.351562 C 218.671875 247.402344 217.761719 248.40625 216.800781 249.367188 C 215.839844 250.328125 214.835938 251.238281 213.789062 252.097656 C 212.738281 252.960938 211.648438 253.765625 210.519531 254.519531 C 209.390625 255.273438 208.230469 255.972656 207.03125 256.613281 C 205.835938 257.25 204.609375 257.832031 203.355469 258.351562 C 202.101562 258.871094 200.824219 259.328125 199.527344 259.71875 C 198.226562 260.113281 196.914062 260.445312 195.582031 260.707031 C 194.25 260.972656 192.910156 261.171875 191.558594 261.304688 C 190.207031 261.4375 188.851562 261.503906 187.496094 261.503906 C 186.140625 261.503906 184.785156 261.4375 183.433594 261.304688 C 182.082031 261.171875 180.742188 260.972656 179.410156 260.707031 C 178.078125 260.445312 176.765625 260.113281 175.464844 259.71875 C 174.167969 259.328125 172.890625 258.871094 171.636719 258.351562 C 170.382812 257.832031 169.15625 257.25 167.960938 256.613281 C 166.761719 255.972656 165.601562 255.273438 164.472656 254.519531 C 163.34375 253.765625 162.253906 252.960938 161.203125 252.097656 C 160.15625 251.238281 159.152344 250.328125 158.191406 249.367188 C 157.230469 248.40625 156.320312 247.402344 155.460938 246.351562 C 154.597656 245.304688 153.792969 244.214844 153.035156 243.085938 C 152.28125 241.957031 151.585938 240.796875 150.945312 239.597656 C 150.304688 238.402344 149.726562 237.175781 149.207031 235.921875 C 148.6875 234.667969 148.230469 233.390625 147.835938 232.09375 C 147.441406 230.792969 147.113281 229.476562 146.847656 228.148438 C 146.585938 226.816406 146.386719 225.476562 146.253906 224.125 C 146.121094 222.773438 146.050781 221.417969 146.050781 220.0625 C 146.050781 218.703125 146.121094 217.351562 146.253906 216 C 146.386719 214.648438 146.585938 213.308594 146.847656 211.976562 C 147.113281 210.644531 147.441406 209.332031 147.835938 208.03125 C 148.230469 206.734375 148.6875 205.457031 149.207031 204.203125 C 149.726562 202.949219 150.304688 201.722656 150.945312 200.527344 C 151.585938 199.328125 152.28125 198.164062 153.035156 197.035156 C 153.792969 195.910156 154.597656 194.820312 155.460938 193.769531 C 156.320312 192.722656 157.230469 191.714844 158.191406 190.757812 C 159.152344 189.796875 160.15625 188.886719 161.203125 188.027344 C 162.253906 187.164062 163.34375 186.355469 164.472656 185.601562 C 165.601562 184.847656 166.761719 184.152344 167.960938 183.511719 C 169.15625 182.871094 170.382812 182.292969 171.636719 181.773438 C 172.890625 181.253906 174.167969 180.796875 175.464844 180.402344 C 176.765625 180.007812 178.078125 179.679688 179.410156 179.414062 C 180.742188 179.148438 182.082031 178.949219 183.433594 178.816406 C 184.785156 178.683594 186.140625 178.617188 187.496094 178.617188 C 188.851562 178.617188 190.207031 178.683594 191.558594 178.816406 C 192.910156 178.949219 194.25 179.148438 195.582031 179.414062 C 196.914062 179.679688 198.226562 180.007812 199.527344 180.402344 C 200.824219 180.796875 202.101562 181.253906 203.355469 181.773438 C 204.609375 182.292969 205.835938 182.871094 207.03125 183.511719 C 208.230469 184.152344 209.390625 184.847656 210.519531 185.601562 C 211.648438 186.355469 212.738281 187.164062 213.789062 188.027344 C 214.835938 188.886719 215.839844 189.796875 216.800781 190.757812 C 217.761719 191.714844 218.671875 192.722656 219.53125 193.769531 C 220.394531 194.820312 221.199219 195.910156 221.953125 197.035156 C 222.707031 198.164062 223.40625 199.328125 224.046875 200.527344 C 224.6875 201.722656 225.265625 202.949219 225.785156 204.203125 C 226.304688 205.457031 226.761719 206.734375 227.15625 208.03125 C 227.546875 209.332031 227.878906 210.644531 228.144531 211.976562 C 228.40625 213.308594 228.605469 214.648438 228.738281 216 C 228.871094 217.351562 228.9375 218.703125 228.9375 220.0625 Z M 228.9375 220.0625 " fill-opacity="1" fill-rule="nonzero"/></g><path fill="#f1f6e1" d="M 215.882812 224.539062 C 215.054688 224.539062 214.433594 223.832031 214.433594 223.003906 L 214.433594 217.535156 C 214.433594 216.703125 215.054688 216 215.882812 216 C 216.714844 216 217.335938 216.703125 217.335938 217.535156 L 217.335938 223.046875 C 217.335938 223.875 216.714844 224.539062 215.882812 224.539062 Z M 215.882812 224.539062 " fill-opacity="1" fill-rule="nonzero"/><path fill="#f1f6e1" d="M 162.835938 224.539062 C 162.007812 224.539062 161.386719 223.832031 161.386719 223.003906 L 161.386719 217.535156 C 161.386719 216.703125 162.007812 216 162.835938 216 C 163.667969 216 164.289062 216.703125 164.289062 217.535156 L 164.289062 223.046875 C 164.289062 223.875 163.667969 224.539062 162.835938 224.539062 Z M 162.835938 224.539062 " fill-opacity="1" fill-rule="nonzero"/><path fill="#f1f6e1" d="M 174.441406 241.984375 C 173.570312 241.984375 172.992188 241.15625 172.992188 240.160156 L 172.992188 200.375 C 172.992188 199.382812 173.570312 198.550781 174.441406 198.550781 C 175.3125 198.550781 175.890625 199.382812 175.890625 200.375 L 175.890625 240.203125 C 175.890625 241.199219 175.269531 241.984375 174.441406 241.984375 Z M 174.441406 241.984375 " fill-opacity="1" fill-rule="nonzero"/><path fill="#f1f6e1" d="M 168.226562 232.246094 C 167.355469 232.246094 166.773438 231.542969 166.773438 230.710938 L 166.773438 209.867188 C 166.773438 208.996094 167.355469 208.332031 168.226562 208.332031 C 169.09375 208.332031 169.675781 209.039062 169.675781 209.867188 L 169.675781 230.710938 C 169.675781 231.542969 169.054688 232.246094 168.226562 232.246094 Z M 168.226562 232.246094 " fill-opacity="1" fill-rule="nonzero"/><path fill="#f1f6e1" d="M 180.449219 232.246094 C 179.582031 232.246094 178.792969 231.542969 178.792969 230.710938 L 178.792969 209.867188 C 178.792969 208.996094 179.582031 208.332031 180.449219 208.332031 C 181.320312 208.332031 182.109375 209.039062 182.109375 209.867188 L 182.109375 230.710938 C 182.109375 231.542969 181.28125 232.246094 180.449219 232.246094 Z M 180.449219 232.246094 " fill-opacity="1" fill-rule="nonzero"/><path fill="#f1f6e1" d="M 192.054688 232.246094 C 191.183594 232.246094 190.398438 231.542969 190.398438 230.710938 L 190.398438 209.867188 C 190.398438 208.996094 191.183594 208.332031 192.054688 208.332031 C 192.925781 208.332031 193.710938 209.039062 193.710938 209.867188 L 193.710938 230.710938 C 193.710938 231.542969 192.882812 232.246094 192.054688 232.246094 Z M 192.054688 232.246094 " fill-opacity="1" fill-rule="nonzero"/><path fill="#f1f6e1" d="M 204.28125 232.246094 C 203.410156 232.246094 202.828125 231.542969 202.828125 230.710938 L 202.828125 209.867188 C 202.828125 208.996094 203.410156 208.332031 204.28125 208.332031 C 205.152344 208.332031 205.730469 209.039062 205.730469 209.867188 L 205.730469 230.710938 C 205.730469 231.542969 205.109375 232.246094 204.28125 232.246094 Z M 204.28125 232.246094 " fill-opacity="1" fill-rule="nonzero"/><path fill="#f1f6e1" d="M 198.269531 226.816406 C 197.402344 226.816406 196.613281 226.113281 196.613281 225.285156 L 196.613281 215.253906 C 196.613281 214.382812 197.402344 213.722656 198.269531 213.722656 C 199.140625 213.722656 199.929688 214.425781 199.929688 215.253906 L 199.929688 225.285156 C 199.929688 226.152344 199.101562 226.816406 198.269531 226.816406 Z M 198.269531 226.816406 " fill-opacity="1" fill-rule="nonzero"/><path fill="#f1f6e1" d="M 210.496094 226.777344 C 209.625 226.777344 209.046875 226.070312 209.046875 225.242188 L 209.046875 215.171875 C 209.046875 214.300781 209.625 213.636719 210.496094 213.636719 C 211.367188 213.636719 211.949219 214.34375 211.949219 215.171875 L 211.949219 225.199219 C 211.949219 226.070312 211.324219 226.777344 210.496094 226.777344 Z M 210.496094 226.777344 " fill-opacity="1" fill-rule="nonzero"/><path fill="#f1f6e1" d="M 186.460938 226.816406 C 185.589844 226.816406 185.007812 226.113281 185.007812 225.285156 L 185.007812 215.253906 C 185.007812 214.382812 185.589844 213.722656 186.460938 213.722656 C 187.332031 213.722656 187.910156 214.425781 187.910156 215.253906 L 187.910156 225.285156 C 187.910156 226.152344 187.289062 226.816406 186.460938 226.816406 Z M 186.460938 226.816406 " fill-opacity="1" fill-rule="nonzero"/><g fill="#6141ac" fill-opacity="1"><g transform="translate(156.619287, 318.816718)"><g><path d="M 8.9375 -18.046875 L 10.640625 -18.046875 L 10.640625 0 L 9.265625 0 L 9.265625 -7.734375 L 9.5 -15 L 6.921875 -0.390625 L 5.46875 -0.390625 L 2.796875 -15 L 3.03125 -7.734375 L 3.03125 0 L 1.640625 0 L 1.640625 -18.046875 L 3.359375 -18.046875 L 6.1875 -2.890625 Z M 8.9375 -18.046875 "/></g></g><g transform="translate(168.903466, 318.816718)"><g><path d="M 3.078125 -3 C 3.078125 -1.8125 3.597656 -1.21875 4.640625 -1.21875 C 5.140625 -1.21875 5.539062 -1.382812 5.84375 -1.71875 C 6.15625 -2.0625 6.3125 -2.523438 6.3125 -3.109375 L 6.296875 -15.375 L 7.828125 -15.375 L 7.828125 0 L 6.3125 0 L 6.3125 -1.53125 C 6.175781 -1.070312 5.894531 -0.664062 5.46875 -0.3125 C 5.039062 0.03125 4.546875 0.203125 3.984375 0.203125 C 3.421875 0.203125 2.875 -0.0234375 2.34375 -0.484375 C 1.8125 -0.941406 1.546875 -1.753906 1.546875 -2.921875 L 1.546875 -15.375 L 3.078125 -15.375 Z M 3.078125 -3 "/></g></g><g transform="translate(178.378075, 318.816718)"><g><path d="M 1.234375 -12.09375 C 1.234375 -13.226562 1.503906 -14.085938 2.046875 -14.671875 C 2.585938 -15.265625 3.335938 -15.5625 4.296875 -15.5625 C 5.253906 -15.5625 5.953125 -15.179688 6.390625 -14.421875 C 6.835938 -13.671875 7.0625 -12.410156 7.0625 -10.640625 L 7.0625 -9.8125 L 5.46875 -9.8125 L 5.46875 -10.90625 C 5.46875 -12 5.375 -12.8125 5.1875 -13.34375 C 5 -13.882812 4.671875 -14.15625 4.203125 -14.15625 C 3.734375 -14.15625 3.378906 -14 3.140625 -13.6875 C 2.898438 -13.382812 2.78125 -12.847656 2.78125 -12.078125 C 2.78125 -12.054688 2.78125 -12.035156 2.78125 -12.015625 C 2.78125 -10.816406 3.335938 -9.679688 4.453125 -8.609375 L 5.234375 -7.828125 C 6.597656 -6.472656 7.28125 -4.972656 7.28125 -3.328125 C 7.28125 -2.234375 7.039062 -1.367188 6.5625 -0.734375 C 6.09375 -0.109375 5.351562 0.203125 4.34375 0.203125 C 3.332031 0.203125 2.578125 -0.144531 2.078125 -0.84375 C 1.578125 -1.539062 1.328125 -2.648438 1.328125 -4.171875 L 1.328125 -5.5 L 2.890625 -5.5 L 2.890625 -4.4375 C 2.890625 -2.269531 3.363281 -1.1875 4.3125 -1.1875 C 4.8125 -1.1875 5.164062 -1.347656 5.375 -1.671875 C 5.59375 -2.003906 5.703125 -2.585938 5.703125 -3.421875 C 5.703125 -4.660156 5.171875 -5.820312 4.109375 -6.90625 L 3.296875 -7.734375 C 1.921875 -9.128906 1.234375 -10.582031 1.234375 -12.09375 Z M 1.234375 -12.09375 "/></g></g><g transform="translate(186.755516, 318.816718)"><g><path d="M 1.65625 -15.375 L 3.203125 -15.375 L 3.203125 0 L 1.65625 0 Z M 1.65625 -18.265625 L 3.1875 -18.265625 L 3.1875 -16.796875 L 1.65625 -16.796875 Z M 1.65625 -18.265625 "/></g></g><g transform="translate(191.615867, 318.816718)"><g><path d="M 1.3125 -10.546875 C 1.3125 -12.253906 1.484375 -13.441406 1.828125 -14.109375 C 2.171875 -14.773438 2.628906 -15.207031 3.203125 -15.40625 C 3.535156 -15.507812 3.988281 -15.5625 4.5625 -15.5625 C 5.132812 -15.5625 5.660156 -15.40625 6.140625 -15.09375 C 6.453125 -14.882812 6.703125 -14.488281 6.890625 -13.90625 C 7.078125 -13.332031 7.171875 -12.179688 7.171875 -10.453125 L 7.171875 -9.984375 L 5.625 -9.984375 L 5.625 -10.921875 C 5.625 -12.109375 5.582031 -12.878906 5.5 -13.234375 C 5.351562 -13.847656 4.976562 -14.15625 4.375 -14.15625 C 3.625 -14.15625 3.160156 -13.726562 2.984375 -12.875 C 2.890625 -12.40625 2.84375 -11.726562 2.84375 -10.84375 L 2.84375 -4.671875 C 2.84375 -3.273438 2.894531 -2.445312 3 -2.1875 C 3.101562 -1.925781 3.210938 -1.726562 3.328125 -1.59375 C 3.515625 -1.34375 3.851562 -1.21875 4.34375 -1.21875 C 4.84375 -1.21875 5.175781 -1.429688 5.34375 -1.859375 C 5.519531 -2.296875 5.609375 -2.769531 5.609375 -3.28125 C 5.617188 -3.800781 5.625 -4.242188 5.625 -4.609375 L 5.625 -5.765625 L 7.171875 -5.765625 L 7.171875 -5.296875 C 7.171875 -3.765625 7.125 -2.710938 7.03125 -2.140625 C 6.757812 -0.585938 5.894531 0.1875 4.4375 0.1875 C 3.1875 0.1875 2.359375 -0.195312 1.953125 -0.96875 C 1.671875 -1.476562 1.492188 -2.0625 1.421875 -2.71875 C 1.347656 -3.375 1.3125 -4.210938 1.3125 -5.234375 Z M 1.3125 -10.546875 "/></g></g><g transform="translate(199.726707, 318.816718)"><g><path d="M 1.65625 -15.375 L 3.203125 -15.375 L 3.203125 0 L 1.65625 0 Z M 1.65625 -18.265625 L 3.1875 -18.265625 L 3.1875 -16.796875 L 1.65625 -16.796875 Z M 1.65625 -18.265625 "/></g></g><g transform="translate(204.587058, 318.816718)"><g><path d="M 2.296875 -15.5 C 2.296875 -16.445312 2.460938 -17.15625 2.796875 -17.625 C 3.128906 -18.101562 3.691406 -18.34375 4.484375 -18.34375 C 5.046875 -18.34375 5.507812 -18.28125 5.875 -18.15625 L 5.875 -16.921875 C 5.570312 -16.960938 5.226562 -16.984375 4.84375 -16.984375 C 4.457031 -16.984375 4.191406 -16.882812 4.046875 -16.6875 C 3.898438 -16.488281 3.828125 -16.171875 3.828125 -15.734375 L 3.828125 -14.78125 L 5.875 -14.78125 L 5.875 -13.625 L 3.828125 -13.625 L 3.828125 0 L 2.296875 0 L 2.296875 -13.625 L 0.859375 -13.625 L 0.859375 -14.78125 L 2.296875 -14.78125 Z M 2.296875 -15.5 "/></g></g><g transform="translate(210.84194, 318.816718)"><g><path d="M 5.546875 -15.375 L 7.078125 -15.375 L 4.625 -0.03125 C 4.46875 1.019531 4.285156 1.671875 4.078125 1.921875 C 3.878906 2.179688 3.648438 2.332031 3.390625 2.375 C 3.128906 2.414062 2.867188 2.4375 2.609375 2.4375 L 1.328125 2.4375 L 1.328125 1.125 L 1.890625 1.125 C 2.628906 1.125 3.050781 1.085938 3.15625 1.015625 C 3.25 0.921875 3.296875 0.785156 3.296875 0.609375 C 3.296875 0.429688 3.285156 0.28125 3.265625 0.15625 C 3.242188 0.03125 3.21875 -0.148438 3.1875 -0.390625 L 0.625 -15.375 L 2.15625 -15.375 L 3.390625 -7.25 L 3.875 -3.0625 L 4.015625 -3.0625 L 4.453125 -7.25 Z M 5.546875 -15.375 "/></g></g></g></svg>