<?xml version="1.0" standalone="no"?>
<!DOCTYPE svg PUBLIC "-//W3C//DTD SVG 20010904//EN"
 "http://www.w3.org/TR/2001/REC-SVG-20010904/DTD/svg10.dtd">
<svg version="1.0" xmlns="http://www.w3.org/2000/svg"
 width="500.000000pt" height="500.000000pt" viewBox="0 0 500.000000 500.000000"
 preserveAspectRatio="xMidYMid meet">

<g transform="translate(0.000000,500.000000) scale(0.100000,-0.100000)"
fill="#000000" stroke="none">
<path d="M2390 4489 c-135 -9 -203 -22 -342 -65 -452 -144 -808 -494 -959
-945 -60 -180 -70 -256 -76 -577 l-5 -292 -59 -32 c-110 -58 -178 -163 -186
-287 -5 -58 4 -103 77 -386 45 -176 91 -337 101 -358 32 -63 85 -112 156 -147
58 -29 78 -33 146 -34 68 -1 80 -4 89 -21 35 -66 126 -119 204 -118 168 1 283
94 292 237 3 53 -16 138 -143 641 -82 324 -157 603 -171 633 -29 59 -71 97
-136 123 l-43 17 1 143 c2 268 72 484 225 689 420 564 1221 637 1733 159 153
-143 280 -355 330 -551 26 -100 50 -319 44 -397 -3 -41 -5 -45 -42 -58 -52
-17 -101 -56 -131 -101 -32 -50 -325 -1205 -325 -1284 0 -147 120 -250 291
-249 77 0 150 38 193 99 29 41 33 43 67 38 48 -8 131 9 188 36 55 27 123 92
150 145 11 22 56 185 102 364 71 281 81 332 76 385 -9 120 -79 226 -186 282
l-58 32 -6 277 c-6 312 -17 399 -74 577 -118 367 -385 685 -723 860 -179 92
-380 152 -545 162 -49 2 -103 6 -120 7 -16 2 -77 0 -135 -4z m410 -117 c260
-61 492 -187 674 -368 292 -289 425 -630 426 -1092 l0 -92 -37 19 c-21 10 -52
22 -69 25 l-31 7 -6 143 c-11 233 -49 391 -138 571 -174 352 -527 613 -914
676 -112 18 -330 16 -438 -5 -256 -49 -490 -177 -673 -367 -98 -103 -158 -186
-217 -304 -91 -180 -126 -323 -134 -552 l-6 -162 -31 -7 c-17 -3 -49 -15 -70
-26 l-39 -20 6 184 c4 126 13 213 27 280 121 572 557 996 1135 1103 116 21
420 14 535 -13z m-1429 -1608 c59 -30 70 -63 223 -670 80 -319 146 -596 146
-614 0 -127 -180 -209 -288 -131 -24 18 -44 43 -51 63 -23 72 -292 1146 -297
1188 -18 135 139 231 267 164z m2396 15 c27 -7 60 -26 83 -48 69 -65 71 -49
-100 -725 -83 -329 -158 -609 -166 -622 -58 -88 -230 -84 -294 6 -46 64 -43
80 114 700 81 316 151 587 157 602 15 36 50 67 96 83 47 17 54 18 110 4z
m-2609 -801 c126 -500 129 -516 109 -522 -31 -8 -106 12 -154 40 -81 47 -96
82 -185 432 -67 265 -79 326 -75 370 6 56 38 121 79 159 31 29 81 54 89 45 3
-4 65 -239 137 -524z m2931 455 c34 -40 61 -117 61 -167 -1 -59 -156 -642
-183 -689 -33 -55 -102 -102 -171 -117 -63 -13 -89 -6 -80 22 3 11 62 241 130
511 68 271 126 498 129 505 7 20 77 -20 114 -65z"/>
<path d="M2344 2591 c-145 -41 -272 -150 -340 -290 -81 -168 -67 -381 35 -540
41 -64 132 -148 198 -184 66 -35 190 -67 262 -67 232 1 444 149 523 365 30 83
37 250 13 331 -55 191 -206 341 -390 389 -79 20 -223 18 -301 -4z m1 -531 c0
-263 -1 -285 -17 -288 -17 -3 -18 16 -18 288 0 272 1 291 18 288 16 -3 17 -25
17 -288z m-85 -1 c0 -147 -1 -160 -17 -157 -16 3 -18 19 -21 148 -3 155 -1
170 23 170 13 0 15 -23 15 -161z m168 3 c2 -133 0 -153 -14 -159 -9 -3 -20 0
-25 8 -10 17 -12 292 -2 303 4 4 14 5 23 4 13 -3 15 -27 18 -156z m157 -2 c0
-148 -1 -155 -20 -155 -19 0 -20 8 -23 145 -1 79 0 150 3 158 3 7 13 12 22 10
16 -3 18 -18 18 -158z m160 0 c0 -139 -2 -155 -17 -158 -17 -3 -18 10 -18 158
0 148 1 161 18 158 15 -3 17 -19 17 -158z m-240 0 c0 -69 -3 -85 -15 -85 -12
0 -16 18 -18 88 -3 81 -1 88 15 85 16 -3 18 -15 18 -88z m160 0 c0 -78 -2 -85
-20 -85 -18 0 -20 8 -23 74 -3 86 1 104 25 99 16 -3 18 -15 18 -88z m160 -1
c0 -68 -3 -84 -15 -84 -12 0 -16 16 -18 74 -3 82 2 105 21 98 8 -2 12 -29 12
-88z m-640 0 c0 -41 -4 -54 -15 -54 -16 0 -27 73 -16 102 13 33 31 5 31 -48z
m710 0 c0 -41 -4 -54 -15 -54 -16 0 -27 73 -16 102 13 33 31 5 31 -48z"/>
</g>
</svg>
